HIERARCHY
ROOT root
{
	OFFSET	0	13.1	24.9
	CHANNELS 6  Xposition Yposition Zposition Xrotation Yrotation Zrotation
	JOINT spine_1
	{
		OFFSET	0	9.99999	0
		CHANNELS 3  Xrotation Yrotation Zrotation
		JOINT spine_2
		{
			OFFSET	0	112	-10
			CHANNELS 3  Xrotation Yrotation Zrotation
			JOINT spine_3
			{
				OFFSET	0	206.5	19.3
				CHANNELS 3  Xrotation Yrotation Zrotation
				JOINT spine_4
				{
					OFFSET	0	110.4	14.6
					CHANNELS 3  Xrotation Yrotation Zrotation
					JOINT neck_1
					{
						OFFSET	0	71.8	-50.3
						CHANNELS 3  Xrotation Yrotation Zrotation
						JOINT neck_2
						{
							OFFSET	0	86.2	-25.8
							CHANNELS 3  Xrotation Yrotation Zrotation
							JOINT head_ee
							{
								OFFSET	0	179.8	-8.7
								CHANNELS 3  Xrotation Yrotation Zrotation
								End Site
								{
									OFFSET	1	0	0
								}
							}
						}
					}
					JOINT left_clavicle
					{
						OFFSET	-43.2	22.4	-70.8
						CHANNELS 3  Xrotation Yrotation Zrotation
						JOINT left_shoulder
						{
							OFFSET	-93.9	-5.79999	48.7
							CHANNELS 3  Xrotation Yrotation Zrotation
							JOINT left_elbow
							{
								OFFSET	-291.4	-30.8	15.2
								CHANNELS 3  Xrotation Yrotation Zrotation
								JOINT left_lowarm_twist
								{
									OFFSET	-110.7	-3.89999	13.6
									CHANNELS 3  Xrotation Yrotation Zrotation
									JOINT left_hand
									{
										OFFSET	-110.7	-3.89999	13.6
										CHANNELS 3  Xrotation Yrotation Zrotation
										JOINT left_ee
										{
											OFFSET	-80.8	-5.10001	12.1
											CHANNELS 3  Xrotation Yrotation Zrotation
											End Site
											{
												OFFSET	1	0	0
											}
										}
									}
								}
							}
						}
					}
					JOINT right_clavicle
					{
						OFFSET	43.2	22.4	-70.8
						CHANNELS 3  Xrotation Yrotation Zrotation
						JOINT right_shoulder
						{
							OFFSET	93.9	-5.79999	48.7
							CHANNELS 3  Xrotation Yrotation Zrotation
							JOINT right_elbow
							{
								OFFSET	291.4	-30.8	15.2
								CHANNELS 3  Xrotation Yrotation Zrotation
								JOINT right_lowarm_twist
								{
									OFFSET	110.7	-3.89999	13.6
									CHANNELS 3  Xrotation Yrotation Zrotation
									JOINT right_hand
									{
										OFFSET	110.7	-3.89999	13.6
										CHANNELS 3  Xrotation Yrotation Zrotation
										JOINT right_ee
										{
											OFFSET	80.8	-5.10001	12.1
											CHANNELS 3  Xrotation Yrotation Zrotation
											End Site
											{
												OFFSET	1	0	0
											}
										}
									}
								}
							}
						}
					}
				}
			}
		}
	}
	JOINT left_hip
	{
		OFFSET	-82.8	-127.5	0.300001
		CHANNELS 3  Xrotation Yrotation Zrotation
		JOINT left_knee
		{
			OFFSET	-28.2	-396.7	2.2
			CHANNELS 3  Xrotation Yrotation Zrotation
			JOINT left_ankle
			{
				OFFSET	-11.7	-411.3	35.4
				CHANNELS 3  Xrotation Yrotation Zrotation
				JOINT left_toes
				{
					OFFSET	0	-60	-88.6
					CHANNELS 3  Xrotation Yrotation Zrotation
					JOINT left_foot_ee
					{
						OFFSET	-22.5	-16.5	-42.2
						CHANNELS 3  Xrotation Yrotation Zrotation
						End Site
						{
							OFFSET	1	0	0
						}
					}
				}
			}
		}
	}
	JOINT right_hip
	{
		OFFSET	82.8	-127.5	0.300001
		CHANNELS 3  Xrotation Yrotation Zrotation
		JOINT right_knee
		{
			OFFSET	28.2	-396.7	2.2
			CHANNELS 3  Xrotation Yrotation Zrotation
			JOINT right_ankle
			{
				OFFSET	11.7	-411.3	35.4
				CHANNELS 3  Xrotation Yrotation Zrotation
				JOINT right_toes
				{
					OFFSET	0	-60	-88.6
					CHANNELS 3  Xrotation Yrotation Zrotation
					JOINT right_foot_ee
					{
						OFFSET	22.5	-16.5	-42.2
						CHANNELS 3  Xrotation Yrotation Zrotation
						End Site
						{
							OFFSET	1	0	0
						}
					}
				}
			}
		}
	}
}
MOTION
Frames: 10
Frame Time: 0.02
3177.02 653.055 -1669.29 -0.449535375214 55.3061450332 0.38405768117 -0.641271 0.719009 2.54454 -0.63784 0.555692 2.5851 -0.609812 -0.0280056 2.64396 -0.619356 0.389765 2.61524 -16.8521 20.5234 3.42224 -18.6428 37.515 11.5013 -0.0 0.0 -0.0 -2.34017 20.0362 -1.09948 -24.8039 -8.70311 74.8881 0.670227 -18.3668 0.108355 4.34259 0.132635 -0.538697 0.0562887 5.26495 2.57075 -0.0 0.0 -0.0 13.6067 26.9078 -26.9713 10.3306 26.3114 -67.4924 1.7303 40.5977 -0.64006 29.7427 -0.0742349 3.75633 4.32885 -6.56278 -32.9116 0.0 0.0 0.0 22.6631 11.5672 -9.35811 -1.38034 0.0543695 0.20485 6.21552 2.11001 -0.899343 -39.6218 0.0 0.0 -0.0 0.0 -0.0 -15.7203 15.0856 1.34574 -9.51989 -0.273373 -1.43375 27.2094 -1.73423 3.59453 -5.95065 0.0 0.0 0.0 0.0 0.0 
3163.98886394 650.509 -1668.21631807 -0.807817653339 54.4859939866 0.49373805202 -0.635121 0.718138 2.5456 -0.631687 0.554755 2.5861 -0.603698 -0.0288593 2.64473 -0.613248 0.389044 2.61614 -16.2689 20.5957 3.0858 -17.9866 37.7733 10.9927 -0.0 0.0 -0.0 -2.30304 19.7489 -1.09558 -23.6047 -9.00397 74.4952 0.686566 -18.7835 0.11356 4.21786 0.129397 -0.523093 -0.00292993 5.32837 2.2083 -0.0 0.0 -0.0 13.704 27.1302 -27.1688 10.4097 26.5216 -67.8103 1.69827 40.0696 -0.619329 29.638 -0.0774016 3.74333 4.10066 -6.93722 -31.2605 0.0 0.0 0.0 23.5103 10.9582 -9.2936 -3.44492 0.12643 0.51349 4.498 1.45541 -0.655088 -39.7518 0.0 0.0 -0.0 0.0 -0.0 -15.5094 15.1633 1.54108 -9.31422 -0.269999 -1.40237 26.5399 -2.47981 3.51573 -5.90258 0.0 0.0 0.0 0.0 0.0 
3147.45977715 642.603 -1664.19851447 -1.12427929743 53.8849140343 1.04077784116 -0.521708 0.719995 2.44985 -0.518545 0.562695 2.49066 -0.49143 0.00494145 2.55339 -0.500296 0.40801 2.52061 -15.9223 20.1236 1.49439 -17.5984 37.7204 9.20086 -0.0 0.0 -0.0 -2.0543 19.4773 -0.773572 -22.677 -9.33165 74.4131 0.700479 -19.1366 0.11808 4.26144 0.130532 -0.528544 0.0422188 5.37657 2.52449 -0.0 0.0 -0.0 13.5931 27.449 -26.8694 10.5793 27.1968 -66.6068 1.58768 38.1819 -0.549535 29.0284 -0.0953608 3.66753 3.93624 -8.20222 -30.4323 0.0 0.0 0.0 24.4232 10.6961 -8.95783 -4.85534 0.169237 0.725709 7.22533 3.88352 -1.03923 -38.7504 0.0 0.0 -0.0 0.0 -0.0 -16.0459 15.1414 1.80137 -8.48678 -0.255287 -1.27626 28.4453 -5.25839 3.72021 -4.9814 0.0 0.0 0.0 0.0 0.0 
3124.33620311 644.249 -1668.13028239 -2.19491651433 53.7932720453 2.37579959868 -0.684923 0.496484 2.44607 -0.681659 0.339877 2.47268 -0.664458 -0.216291 2.48654 -0.673042 0.179 2.4895 -15.7539 20.7702 3.49218 -17.3663 37.8191 11.2169 -0.0 0.0 -0.0 -2.15645 19.0072 -1.00649 -21.8318 -9.55189 74.0354 0.742733 -20.2 0.132302 4.21275 0.129264 -0.522453 0.00236152 5.27925 2.22268 -0.0 0.0 -0.0 13.2607 27.0868 -26.1465 9.65763 26.8729 -67.2014 1.63181 38.9474 -0.577046 29.6317 -0.0775917 3.74254 3.98112 -7.24443 -30.4478 0.0 0.0 0.0 23.8464 10.2502 -8.99194 -5.80064 0.194996 0.868493 3.25944 1.31449 -0.476551 -39.5911 0.0 0.0 -0.0 0.0 -0.0 -15.9343 15.6204 2.01702 -10.1586 -0.283132 -1.53126 26.1184 -1.98983 3.47014 -5.873 0.0 0.0 0.0 0.0 0.0 
3087.09284106 640.309 -1676.23151176 -1.12291082613 53.205773937 1.51620521731 -0.655537 0.487558 2.40721 -0.652375 0.333439 2.43334 -0.635789 -0.212629 2.44685 -0.644101 0.176354 2.44973 -12.4308 20.9634 2.57731 -13.4641 38.2625 9.07526 -0.0 0.0 -0.0 -2.10171 18.4535 -1.01888 -20.574 -10.3948 73.4031 0.762686 -20.6971 0.139273 3.7954 0.118178 -0.470294 0.224927 5.44522 3.75217 -0.0 0.0 -0.0 13.5532 26.981 -26.8377 8.44908 27.0442 -66.7681 1.33204 33.4174 -0.399869 30.0522 -0.0647381 3.79472 3.54836 -9.31736 -27.8938 0.0 0.0 0.0 23.181 10.4255 -8.19284 -10.5146 0.288101 1.58567 11.3819 4.25329 -1.61303 -38.9901 0.0 0.0 -0.0 0.0 -0.0 -15.8615 17.0128 2.46207 -16.9494 -0.319483 -2.57197 29.1767 -4.60483 3.80092 -3.06804 0.0 0.0 0.0 0.0 0.0 
3057.62789971 640.278 -1675.44377016 -0.784375039269 51.9490307479 1.20121062567 -0.695765 0.551039 2.50082 -0.69237 0.390841 2.53079 -0.672392 -0.179776 2.55445 -0.681426 0.225774 2.5508 -11.0185 20.272 -0.64169 -11.8252 38.7837 5.24258 -0.0 0.0 -0.0 -1.3614 18.1278 0.0529003 -17.7741 -11.1499 71.3204 0.827999 -22.3016 0.163212 4.19716 0.128856 -0.520504 0.289481 7.41091 4.97131 -0.0 0.0 -0.0 13.0187 27.0501 -25.5924 6.13045 27.5932 -67.1178 1.35415 33.8521 -0.412112 31.3004 -0.0243343 3.94903 3.16732 -13.0784 -26.3135 0.0 0.0 0.0 20.2649 11.4422 -6.15648 -9.99888 0.280794 1.50688 18.6969 9.05597 -2.56918 -36.5448 0.0 0.0 -0.0 0.0 -0.0 -15.2734 18.9118 2.19656 -20.1637 -0.293657 -3.0644 31.4554 -10.3912 4.0536 -2.18831 0.0 0.0 0.0 0.0 0.0 
3034.12767887 642.281 -1687.08194935 0.899529788824 52.1307606521 -0.460847045981 -0.774006 0.579092 2.50969 -0.770599 0.418273 2.54142 -0.749199 -0.158806 2.57069 -0.758335 0.249043 2.56353 -12.0921 20.038 -0.468183 -13.087 38.3481 5.7701 -0.0 0.0 -0.0 -1.56918 19.9476 0.0204004 -18.3912 -13.8354 69.1347 0.915894 -24.4038 0.198059 4.04193 0.124772 -0.501095 0.609977 6.76426 6.81043 -0.0 0.0 -0.0 13.1277 26.7102 -25.8865 3.51624 27.2949 -66.3691 1.25639 31.8958 -0.35904 34.225 0.0834415 4.30691 3.04247 -14.0142 -25.7094 0.0 0.0 0.0 17.7341 11.1882 -5.03232 -11.4704 0.299766 1.73187 19.9195 9.99551 -2.72411 -34.4855 0.0 0.0 -0.0 0.0 -0.0 -16.2542 20.912 2.04889 -24.4808 -0.215605 -3.7221 34.2239 -11.1774 4.34241 -3.05819 0.0 0.0 0.0 0.0 0.0 
3034.28359968 642.281 -1688.29233992 0.889863653289 51.6452254394 -0.448561867091 -0.774006 0.579092 2.50969 -0.770599 0.418273 2.54142 -0.749199 -0.158806 2.57069 -0.758335 0.249043 2.56353 -12.0921 20.038 -0.468183 -13.087 38.3481 5.7701 -0.0 0.0 -0.0 -1.56918 19.9476 0.0204004 -18.3912 -13.8354 69.1347 0.915894 -24.4038 0.198059 4.04193 0.124772 -0.501095 0.609977 6.76426 6.81043 -0.0 0.0 -0.0 13.1277 26.7102 -25.8865 3.51624 27.2949 -66.3691 1.25639 31.8958 -0.35904 34.225 0.0834415 4.30691 3.04247 -14.0142 -25.7094 0.0 0.0 0.0 17.7341 11.1882 -5.03232 -11.4704 0.299766 1.73187 19.9195 9.99551 -2.72411 -34.4855 0.0 0.0 -0.0 0.0 -0.0 -16.2542 20.912 2.04889 -24.4808 -0.215605 -3.7221 34.2239 -11.1774 4.34241 -3.05819 0.0 0.0 0.0 0.0 0.0 
3018.88636705 646.572 -1696.80273576 3.07670398838 50.7306743193 -2.57458987195 -0.925409 0.537252 2.51284 -0.921975 0.376318 2.5419 -0.902333 -0.206706 2.56127 -0.911431 0.200257 2.56178 -12.807 19.4349 -1.72237 -13.9107 38.04 4.66707 -0.0 0.0 -0.0 -1.38532 20.0498 0.306232 -17.9807 -16.5246 67.0741 1.00976 -26.5738 0.238458 3.98778 0.123335 -0.494328 0.812887 6.38323 7.99589 -0.0 0.0 -0.0 13.1259 26.7916 -25.8723 2.10527 27.6576 -65.9713 1.16725 30.0364 -0.313172 35.4715 0.134912 4.45771 2.73788 -16.1524 -24.2194 0.0 0.0 0.0 16.4017 12.0541 -4.30638 -13.3776 0.315745 2.02405 21.3672 11.8088 -2.90895 -32.792 0.0 0.0 -0.0 0.0 -0.0 -16.4487 23.2278 2.12477 -27.6009 -0.128454 -4.19295 38.951 -14.4104 4.82901 -2.03154 0.0 0.0 0.0 0.0 0.0 
2990.81375857 643.241 -1703.09946099 4.18193051834 50.6211181098 -3.46719848328 -1.0545 0.486141 2.60522 -1.05078 0.319438 2.63085 -1.03291 -0.288264 2.63444 -1.04257 0.131264 2.64691 -15.6602 19.3597 -2.52 -17.3698 38.5069 5.10452 -0.0 0.0 -0.0 -1.71419 20.4791 -0.107974 -15.8348 -17.7436 66.0786 1.31878 -33.1544 0.392589 4.35532 0.132964 -0.54029 0.911372 6.73033 8.78118 -0.0 0.0 -0.0 12.5422 26.5852 -24.5538 -1.00394 27.689 -65.9863 1.24799 31.7237 -0.354614 36.4286 0.176655 4.57273 2.74635 -20.7991 -25.5249 0.0 0.0 0.0 14.091 12.1225 -3.18438 -12.5957 0.31037 1.90419 23.9904 11.638 -3.22451 -32.2733 0.0 0.0 -0.0 0.0 -0.0 -16.7071 23.7551 1.85615 -30.2637 -0.0338758 -4.59063 40.8315 -17.3036 5.04655 -0.244205 0.0 0.0 0.0 0.0 0.0 
